<svg xmlns="http://www.w3.org/2000/svg" width="116" height="19" viewBox="0 0 116 19">
  <defs>
    <style>
      .cls-1 {
        fill: #e7e5e5;
      }
    </style>
  </defs>
  <g id="stars" transform="translate(-7164 -835)">
    <g id="star_border_icon" data-name="star border icon">
      <path id="star_border_icon-2" data-name="star border icon" class="cls-1" d="M7280,842.24l-7.189-.62L7270,835l-2.81,6.63-7.189.61,5.459,4.73L7263.82,854l6.179-3.73,6.181,3.73-1.631-7.03,5.452-4.73Zm-10,6.16-3.758,2.27,1-4.28-3.321-2.88,4.381-.38,1.7-4.03,1.709,4.04,4.381.38-3.319,2.88,1,4.28L7270,848.4Z"/>
    </g>
    <g id="star_border_icon-3" data-name="star border icon" transform="translate(-24)">
      <path id="star_border_icon-4" data-name="star border icon" class="cls-1" d="M7280,842.24l-7.189-.62L7270,835l-2.81,6.63-7.189.61,5.459,4.73L7263.82,854l6.179-3.73,6.181,3.73-1.631-7.03,5.452-4.73Zm-10,6.16-3.758,2.27,1-4.28-3.321-2.88,4.381-.38,1.7-4.03,1.709,4.04,4.381.38-3.319,2.88,1,4.28L7270,848.4Z"/>
    </g>
    <g id="star_border_icon-5" data-name="star border icon" transform="translate(-48)">
      <path id="star_border_icon-6" data-name="star border icon" class="cls-1" d="M7280,842.24l-7.189-.62L7270,835l-2.81,6.63-7.189.61,5.459,4.73L7263.82,854l6.179-3.73,6.181,3.73-1.631-7.03,5.452-4.73Zm-10,6.16-3.758,2.27,1-4.28-3.321-2.88,4.381-.38,1.7-4.03,1.709,4.04,4.381.38-3.319,2.88,1,4.28L7270,848.4Z"/>
    </g>
    <g id="star_border_icon-7" data-name="star border icon" transform="translate(-72)">
      <path id="star_border_icon-8" data-name="star border icon" class="cls-1" d="M7280,842.24l-7.189-.62L7270,835l-2.81,6.63-7.189.61,5.459,4.73L7263.82,854l6.179-3.73,6.181,3.73-1.631-7.03,5.452-4.73Zm-10,6.16-3.758,2.27,1-4.28-3.321-2.88,4.381-.38,1.7-4.03,1.709,4.04,4.381.38-3.319,2.88,1,4.28L7270,848.4Z"/>
      <path id="star_border_icon-9" data-name="star border icon" class="cls-1" d="M7280,842.24l-7.189-.62L7270,835l-2.81,6.63-7.189.61,5.459,4.73L7263.82,854l6.179-3.73,6.181,3.73-1.631-7.03,5.452-4.73Zm-10,6.16-3.758,2.27,1-4.28-3.321-2.88,4.381-.38,1.7-4.03,1.709,4.04,4.381.38-3.319,2.88,1,4.28L7270,848.4Z" transform="translate(-24)"/>
    </g>
  </g>
</svg>
