<svg xmlns="http://www.w3.org/2000/svg" width="20" height="18.35" viewBox="0 0 20 18.35">
  <defs>
    <style>
      .cls-1 {
        fill: #dadada;
      }
    </style>
  </defs>
  <path id="wishlist_icon" data-name="wishlist icon" class="cls-1" d="M7433.549,527.039c-5.147-4.679-8.548-7.76-8.548-11.539a5.446,5.446,0,0,1,5.5-5.5,5.892,5.892,0,0,0,9,0,5.446,5.446,0,0,1,5.5,5.5c0,3.78-3.4,6.861-8.55,11.53l-1.45,1.321Zm1.351-1.489.1.1.1-.1c4.759-4.31,7.9-7.16,7.9-10.05a3.418,3.418,0,0,0-3.5-3.5,3.885,3.885,0,0,0-3.56,2.36h-1.87A3.91,3.91,0,0,0,7430.5,512a3.418,3.418,0,0,0-3.5,3.5C7427,518.39,7430.141,521.239,7434.9,525.55Z" transform="translate(-7425 -510.001)"/>
</svg>
